<svg width="82" height="82" viewBox="0 0 82 82" fill="none" xmlns="http://www.w3.org/2000/svg">
<path d="M68.3388 10.2228C67.1857 10.668 66.0646 11.6898 65.1357 12.8589C65.8724 15.998 64.399 19.3949 63.2298 21.8293C66.3369 21.7332 71.7181 22.8383 74.1845 21.4609C77.1314 19.8113 79.79 14.0601 78.9572 11.2574C75.9462 10.4966 70.9013 9.36273 68.3388 10.2228ZM44.4275 11.5937L44.1552 13.6117C46.1251 14.0761 47.9029 14.7968 49.5525 15.9339C49.8087 14.1402 50.2732 12.5707 51.5224 11.5617C49.1681 11.4015 46.7017 11.4175 44.4275 11.5937ZM75.3857 11.914C73.1275 13.1953 70.9173 14.1082 69.8763 15.5015C68.8513 14.6046 68.1947 13.5796 68.499 12.1543C70.7572 11.1773 73.1755 11.4015 75.3857 11.914ZM41.4806 11.914C39.7509 12.1382 38.0372 12.4585 36.3236 12.891C38.0533 12.907 39.831 12.971 41.3044 13.1312L41.4806 11.914ZM53.204 13.932C51.8747 16.6562 52.7076 18.5141 53.7806 20.6441C55.19 18.2418 56.4232 15.6777 57.4642 13.0031C56.0228 12.7148 54.165 12.923 53.204 13.932ZM60.5872 12.939C51.2501 38.4695 25.449 53.0758 2.88135 51.3621C3.07354 57.2238 12.5612 54.7414 16.0062 54.1008C24.3599 52.4992 35.1384 48.8156 42.8579 42.1531C49.056 36.8199 54.7576 30.4777 58.5853 24.3437C59.7704 21.7172 63.2138 16.8324 62.429 13.8199C62.1728 13.0992 61.2919 13.0992 60.5872 12.939ZM31.4708 16.0476C33.1845 16.9926 34.6579 18.1617 36.0673 19.2828C36.6119 18.1137 37.4447 16.9445 38.6779 15.8218C36.3236 15.7257 33.6329 15.8539 31.4708 16.0476ZM42.938 16.2879C39.9751 17.9855 38.854 19.523 38.3896 21.1406C40.0072 22.7422 41.7689 24.9684 43.2103 26.9383C43.0661 23.1426 46.3814 19.8754 49.104 19.2508C47.3263 17.5851 45.4365 16.8004 42.938 16.2879ZM26.6982 17.2488C26.474 19.2988 26.2497 21.3648 26.538 23.3027C28.2357 21.6211 30.6701 20.6601 32.7521 20.3879C30.8783 18.9785 29.0204 17.7773 26.6982 17.2488ZM23.6232 18.8824C21.6693 21.2047 19.9876 23.9434 18.5302 26.6019C20.0197 25.9133 21.7814 25.4168 24.0236 25.3047C23.399 23.0945 23.447 20.9004 23.6232 18.8824ZM47.5025 23.0144C45.4365 24.9043 46.1251 28.0434 46.6537 30.2855C49.04 27.707 51.2021 24.8723 53.0759 21.8293C51.2181 21.8613 48.9279 21.9094 47.5025 23.0144ZM27.2267 27.0824C27.1466 30.0133 27.9474 33.5367 28.9404 36.3394C31.4068 31.0543 35.5869 28.2836 40.9201 28.716C39.5427 26.8582 37.9091 24.7922 36.5318 23.3668C32.5919 23.0465 29.2447 23.559 27.2267 27.0824ZM16.9287 23.543C15.1381 25.1926 13.5333 26.9223 12.1063 28.7C12.7117 28.7641 13.3155 28.9402 13.9001 29.2125C14.7922 27.4668 15.7979 25.5129 16.9287 23.543ZM24.3439 28.1394C19.8595 28.2195 18.1298 29.9332 15.7979 32.0152C15.018 35.2984 14.7409 38.5496 14.9763 41.7047C17.8095 38.1012 22.0697 36.0512 26.2177 37.3324C25.2408 34.6098 24.44 31.3105 24.3439 28.1394ZM35.0103 32.9601C32.672 34.6098 31.1025 37.6367 30.606 41.0961L30.3818 42.6016C35.4587 40.023 40.2314 36.6437 44.4595 32.5277C41.1923 31.2465 37.781 31.0383 35.0103 32.9601ZM9.43174 32.3836C7.72287 35.0101 6.36955 37.7168 5.34295 40.4394C8.19373 39.7027 10.721 41.3203 12.2281 43.2582C11.7924 39.5426 12.0151 35.7148 12.8703 31.9031C11.6531 31.2144 10.3831 31.6949 9.43174 32.3836ZM56.9517 31.8551C55.5423 33.7289 54.0369 35.5547 52.4513 37.3004C53.5724 40.0711 53.4283 43.3062 52.2111 45.7566C50.7056 48.7836 48.2072 51.1539 46.3013 55.4941C45.5005 57.4 44.4915 65.5039 46.8779 65.632C54.4372 61.2918 62.9415 51.2019 63.374 42.8258C62.3169 38.3254 59.8025 35.0582 56.9517 31.8551ZM20.6603 40.4875C18.3701 41.6246 16.224 44.1551 15.0997 47.8066C19.8915 46.9418 24.6962 45.3723 29.2927 43.1461C26.6501 40.3914 23.8954 38.8699 20.6603 40.4875ZM6.66104 43.066C3.86791 43.7387 3.59564 46.0609 3.21768 48.4793C5.96115 48.6875 8.76389 48.6234 11.5842 48.3191C10.9596 45.9488 9.14826 43.082 6.66104 43.066ZM23.0626 55.334C21.5251 55.7824 20.0197 56.1828 18.5462 56.5191C17.265 58.8254 15.2646 61.9805 14.9619 64.6551C15.0804 67.3777 15.7659 69.7641 16.6564 72.0863C24.0716 66.8492 24.9525 61.6121 23.0626 55.334Z" fill="black"/>
</svg>
